<svg width="256" height="256" viewBox="0 0 256 256" fill="none" xmlns="http://www.w3.org/2000/svg">
<path fill-rule="evenodd" clip-rule="evenodd" d="M233.586 41.3721C239.456 47.2181 239.475 56.7151 233.629 62.5851L139.014 157.585C137.62 158.984 135.965 160.094 134.142 160.852C132.318 161.61 130.363 162 128.389 162C126.415 162.001 124.46 161.611 122.636 160.855C120.813 160.098 119.156 158.988 117.763 157.59L89.3776 129.119C83.5286 123.252 83.5436 113.755 89.4106 107.906C95.2766 102.057 104.775 102.071 110.624 107.938L128.38 125.749L212.373 41.4151C218.219 35.5451 227.716 35.5261 233.586 41.3721ZM110.37 49.9673C127.197 46.1654 144.803 47.9048 160.561 54.9261C168.128 58.2971 176.996 54.8971 180.367 47.3291C183.739 39.7621 180.338 30.8951 172.771 27.5231C156.582 20.3096 138.889 17.1148 121.2 18.2104C103.511 19.3061 86.3479 24.6598 71.1729 33.8159C55.9979 42.9719 43.2599 55.6592 34.0434 70.7976C24.8269 85.936 19.4048 103.077 18.2386 120.762C16.6774 144.431 22.8094 167.971 35.7202 187.871C48.6309 207.77 67.6286 222.963 89.8796 231.183C106.505 237.325 124.367 239.358 141.947 237.111C159.527 234.864 176.304 228.402 190.849 218.275C205.395 208.149 217.278 194.658 225.488 178.951C233.697 163.244 237.99 145.786 238.001 128.063V119.314C238.001 111.03 231.285 104.314 223.001 104.314C214.717 104.314 208.001 111.03 208.001 119.314V128.046C207.991 145.297 202.405 162.084 192.075 175.901C181.746 189.718 167.227 199.826 150.683 204.717C134.14 209.609 116.459 209.021 100.276 203.043C84.094 197.064 70.2778 186.015 60.8882 171.543C51.4987 157.07 47.0389 139.951 48.174 122.737C49.309 105.523 55.9782 89.1367 67.1868 76.0227C78.3954 62.9086 93.5428 53.7691 110.37 49.9673Z" fill="#FBE81F"/>
<path fill-rule="evenodd" clip-rule="evenodd" d="M192.915 60.952L128.38 125.749L110.624 107.938C104.775 102.071 95.2766 102.057 89.4106 107.906C83.5436 113.755 83.5286 123.252 89.3776 129.119L117.763 157.59C119.156 158.988 120.813 160.098 122.636 160.855C124.46 161.611 126.415 162.001 128.389 162C130.363 162 132.318 161.61 134.142 160.852C135.965 160.094 137.62 158.984 139.014 157.585L230.532 65.6941C219.86 63.3914 209.187 62.4279 198.488 61.4622C196.631 61.2946 194.773 61.1268 192.915 60.952ZM138.492 48.6913C129.175 47.4588 119.654 47.8696 110.37 49.9672C93.5428 53.7691 78.3954 62.9086 67.1868 76.0227C55.9782 89.1367 49.309 105.523 48.174 122.737C47.0389 139.951 51.4987 157.07 60.8882 171.543C70.2778 186.015 84.094 197.064 100.276 203.043C116.459 209.021 134.14 209.609 150.683 204.717C167.227 199.826 181.746 189.718 192.075 175.901C202.405 162.083 207.991 145.297 208.001 128.046V119.314C208.001 111.03 214.717 104.314 223.001 104.314C231.285 104.314 238.001 111.03 238.001 119.314V128.063C237.99 145.786 233.697 163.244 225.488 178.951C217.278 194.658 205.395 208.149 190.849 218.275C176.304 228.402 159.527 234.864 141.947 237.111C124.367 239.358 106.505 237.325 89.8796 231.183C67.6286 222.963 48.6309 207.77 35.7202 187.871C22.8094 167.971 16.6774 144.431 18.2386 120.762C19.4048 103.077 24.8269 85.936 34.0434 70.7976C43.2599 55.6592 55.9979 42.9719 71.1729 33.8158C72.2205 33.1837 73.2776 32.5698 74.3437 31.9741C80.6941 32.1971 87.0579 32.8101 93.44 34.04C105.826 36.3746 118.317 41.0922 130.8 45.8066C133.365 46.7752 135.929 47.7436 138.492 48.6913Z" fill="#ACDC47"/>
<path fill-rule="evenodd" clip-rule="evenodd" d="M180.661 115.769C174.641 115.33 168.609 115.415 162.56 116.36C146.788 118.837 130.846 127.224 114.968 135.577C110.751 137.795 106.538 140.012 102.334 142.114L117.763 157.59C119.156 158.988 120.813 160.098 122.636 160.855C124.46 161.611 126.415 162.001 128.389 162C130.363 162 132.318 161.61 134.142 160.852C135.965 160.094 137.62 158.984 139.014 157.585L180.661 115.769ZM238.001 125.061V128.063C237.99 145.786 233.697 163.244 225.488 178.951C217.278 194.658 205.395 208.149 190.849 218.276C176.304 228.402 159.527 234.864 141.947 237.111C124.367 239.358 106.505 237.325 89.8796 231.183C67.6286 222.963 48.6309 207.77 35.7202 187.871C30.7501 180.21 26.7845 172.01 23.8757 163.471C24.1838 163.448 24.4919 163.424 24.8 163.4C34.6363 162.624 44.4726 161.289 54.3281 159.183C56.1404 163.465 58.3315 167.602 60.8882 171.543C70.2778 186.015 84.094 197.064 100.276 203.043C116.459 209.021 134.14 209.609 150.683 204.717C167.227 199.826 181.746 189.718 192.075 175.901C202.405 162.084 207.991 145.297 208.001 128.046V120.207C208.249 120.259 208.498 120.311 208.746 120.363C216.237 121.93 223.718 123.494 231.2 124.4C233.467 124.674 235.734 124.891 238.001 125.061Z" fill="#68C869"/>
<path fill-rule="evenodd" clip-rule="evenodd" d="M218.702 190.233C211.208 201.156 201.78 210.666 190.849 218.275C176.304 228.402 159.527 234.864 141.947 237.111C124.367 239.358 106.505 237.325 89.8796 231.183C77.9174 226.764 66.8955 220.33 57.2542 212.232C69.273 217.099 81.3233 221.158 93.44 221.6C111.472 222.261 129.726 214.678 147.853 207.147C152.767 205.106 157.672 203.068 162.56 201.2C181.391 194.04 200.061 189.205 218.702 190.233Z" fill="#2BAF80"/>
</svg>
